<?xml version="1.0" encoding="utf-8"?>
<!-- Generator: Adobe Illustrator 25.2.0, SVG Export Plug-In . SVG Version: 6.00 Build 0)  -->
<svg version="1.1" id="Layer_1" xmlns="http://www.w3.org/2000/svg" xmlns:xlink="http://www.w3.org/1999/xlink" x="0px" y="0px"
	 viewBox="0 0 1366 768" style="enable-background:new 0 0 1366 768;" xml:space="preserve">
<style type="text/css">
	.st0{fill:#57D5F2;fill-opacity:0.996;}
	.st1{fill:#1B8E4C;}
	.st2{stroke:#000000;stroke-width:1.4345;stroke-miterlimit:11.3386;stroke-opacity:0.5079;}
	.st3{fill:#69A06A;}
	.st4{fill:none;stroke:#000000;stroke-width:9.4186;stroke-miterlimit:11.3386;}
	.st5{fill:#777777;}
	.st6{fill:#231F20;}
	.st7{font-family:'ArialMT';}
	.st8{font-size:16.52px;}
</style>
<path id="path11-1" class="st0" d="M647.4,428.2L647.4,428.2c0-1,0-2.5,0-3.5c0-110.9-85.1-201.7-189.8-201.7
	c-72.2,0-135,42.6-166.7,105.4v-297H144.3v666.3h146.6l0,0h357L647.4,428.2z"/>
<path id="path6" class="st1" d="M1117.6,221.5l-99.4,336.2l-0.9-2l-62.4-217.8H846.6l-63.3,220.8l-66-222.3h0.4l-17.4-57.2
	l-16.9-56.7H561l40.1,134l95.4,321.6l12,40.6l6.7-3l1.3,3.5l46.3-19.6l-0.9-2.5l5.8-2c8-9,17.4-17.6,27.6-26.1
	c16-12.5,33.4-22.1,48.6-28.1l10.2-7v0.5l8.5-3.5c10.2-8,28.5-13.5,49.5-14c11.1-3,24.1-4.5,37.4-4.5c23.2,0,44.1,4.5,58.8,12h10.2
	l0,0l88.7,40.6l116.8-393.4l15.2-50.7L1117.6,221.5z"/>
<ellipse id="path1225" class="st2" cx="323.9" cy="601.3" rx="23.2" ry="22.1"/>
<path id="path9" class="st3" d="M293.1,362.5"/>
<path id="path963" class="st4" d="M638.8,677.1c74.4,68.7,116.3,19.6,173.8-26.1c57.9-45.2,164.4-66.7,270.9-2.5
	c53,32.1,61.5,38.1,71.3,42.1c57.9,19.6,85.1-6.5,85.1-6.5"/>
<path id="path14" class="st5" d="M647,673.5c0.9-34.1-8.5-95.8-74-146c-94.9-73.3-213.9-24.1-285.7,24.1
	c-71.3,48.7-142.6,146-142.6,146h500l0,0h2.7v-24.1H647z"/>
<ellipse id="ellipse16" class="st6" cx="292.7" cy="619.4" rx="20.1" ry="20.6"/>
<text id="text18" transform="matrix(0.9743 0 0 1 148.5498 720.6348)" class="st7 st8">Hardware © 2021 by Pia Herman is licensed under CC BY 4.0</text>
</svg>
